<svg width="1058" height="62" viewBox="0 0 1058 62" fill="none" xmlns="http://www.w3.org/2000/svg">
<style>
    text {
      font-size: 16px;
      font-family: "Consolas";
    }
  </style>
<rect width="1058" height="62" rx="6" fill="#F6F8FA"/>
<rect x="1006.5" y="10.5" width="41" height="41" rx="5.5" fill="#F6F8FA" stroke="#D1D9E0"/>
<path d="M1022 29H1019V39H1029V36H1031V39C1031 40.0357 1030.21 40.887 1029.2 40.9893L1029 41H1019L1018.8 40.9893C1017.85 40.8938 1017.11 40.1457 1017.01 39.2041L1017 39V29C1017 27.8954 1017.9 27 1019 27H1022V29ZM1035 21C1036.1 21 1037 21.8954 1037 23V33C1037 34.0357 1036.21 34.887 1035.2 34.9893L1035 35H1025L1024.8 34.9893C1023.85 34.8938 1023.11 34.1457 1023.01 33.2041L1023 33V23C1023 21.8954 1023.9 21 1025 21H1035ZM1025 33H1035V23H1025V33Z" fill="#59636E"/>
<text x="20" y="35" fill="#1F2328">></text>
<text x="37" y="35" fill="#1F2328" opacity="0">_
    <animate
    attributeName="opacity"
    begin=".05s"
    dur="0.8s"
    values="0 ; 0 ; .1 ; .5 ; 1 ; 0"
    keyTimes="0 ; .2 ; .4 ; .6 ; .8 ; 1"
    repeatCount="indefinite" />
</text>

</svg>
